<svg xmlns="http://www.w3.org/2000/svg" viewBox="0 0 48 35.97"><defs><style>.cls-1{fill:#f7b519;}.cls-2{fill:#fff;}.cls-3{fill:#404852;}</style></defs><g id="Layer_2" data-name="Layer 2"><g id="Layer_3" data-name="Layer 3"><rect class="cls-1" x="4.96" y="9.57" width="38.2" height="20.73" rx="1.11"/><rect class="cls-2" x="4.83" y="7.46" width="38.2" height="20.73" rx="1.11"/><path class="cls-3" d="M41.92,27.58H6.85c-.76,0-1.36.1-1.41-.84-.1-1.79,0-3.61,0-5.4V13.52a28.73,28.73,0,0,1,0-4.82c.15-.87,1.12-.63,1.83-.63h33c.63,0,1.94-.27,2.15.5a4.9,4.9,0,0,1,0,1.21V26.39c0,.58.12,1.11-.66,1.21s-.44,1.28.33,1.18c1.91-.26,1.55-2.41,1.55-3.8V10.13c0-1.39.16-3.12-1.73-3.28-3-.24-6.1,0-9.09,0H16.28c-3.38,0-6.81-.16-10.2,0-1.59.08-1.86,1.27-1.86,2.57V24c0,1.14-.38,3.2.41,4.17s2,.63,2.91.63H41.92A.61.61,0,0,0,41.92,27.58Z"/><circle class="cls-1" cx="23.68" cy="18.06" r="5.74"/><path class="cls-3" d="M22.74,22.81A5.08,5.08,0,1,1,27.1,14c.59.51,1.46-.35.87-.86a6.3,6.3,0,0,0-9.56,8,6.41,6.41,0,0,0,4,2.78c.76.16,1.09-1,.32-1.18Z"/><path class="cls-3" d="M26.23,22.25c-.2.11-.4.21-.61.3l.14-.06a5.9,5.9,0,0,1-1.44.39.61.61,0,0,0-.42.75.63.63,0,0,0,.28.36.69.69,0,0,0,.47.06,6.06,6.06,0,0,0,2.19-.75.61.61,0,0,0,.22-.83.62.62,0,0,0-.83-.22Z"/><path class="cls-3" d="M28.81,17.82c0,.15,0,.3,0,.44a1.5,1.5,0,0,1,0,.22c0,.15,0-.08,0,.05a5.58,5.58,0,0,1-.18.81c0,.12-.08.25-.13.37a1,1,0,0,0,0,.1h0l-.07.16a7,7,0,0,1-.4.7.61.61,0,0,0,.22.83.62.62,0,0,0,.83-.22,6.33,6.33,0,0,0,1-3.46.61.61,0,0,0-1.22,0Z"/><path class="cls-3" d="M21.51,25.55H11.94l.61.61a5,5,0,0,0-4.88-4.88l.61.61V14.17l-.61.61A5,5,0,0,0,12.55,9.9l-.61.61h4.64a.61.61,0,0,0,0-1.22H11.94a.63.63,0,0,0-.61.61,3.71,3.71,0,0,1-3.66,3.66.62.62,0,0,0-.6.61v7.72a.61.61,0,0,0,.6.61,3.7,3.7,0,0,1,3.66,3.66.62.62,0,0,0,.61.61h9.57a.61.61,0,0,0,0-1.22Z"/><path class="cls-3" d="M28.26,25.55H24.81a.61.61,0,0,0-.61.61.62.62,0,0,0,.61.61h3.45a.61.61,0,0,0,.61-.61.62.62,0,0,0-.61-.61Z"/><path class="cls-3" d="M27,10.51h9l-.61-.61a5,5,0,0,0,4.88,4.88l-.61-.61v7.72l.61-.61a5,5,0,0,0-4.88,4.88l.61-.61H31.19a.61.61,0,0,0,0,1.22H36a.62.62,0,0,0,.61-.61,3.71,3.71,0,0,1,3.66-3.66.62.62,0,0,0,.61-.61V14.17a.62.62,0,0,0-.61-.61A3.72,3.72,0,0,1,36.61,9.9.62.62,0,0,0,36,9.29H27a.61.61,0,0,0,0,1.22Z"/><path class="cls-3" d="M19.4,10.51h4.23a.61.61,0,0,0,0-1.22H19.4a.63.63,0,0,0-.61.61.62.62,0,0,0,.61.61Z"/><path class="cls-1" d="M3.41,1.92C2.87,1.38,3.09,0,2.51,0s-.35,1.38-.89,1.92C.81,2.73,0,2.79,0,3.12s.69.27,1.48,1.06c.41.41.63,2.1,1,2.1s.63-1.69,1-2.1C4.34,3.39,5,3.44,5,3.12S4.22,2.73,3.41,1.92Z"/><path class="cls-1" d="M46.38,31.61c-.54-.54-.32-1.92-.89-1.92s-.36,1.38-.9,1.92c-.81.81-1.62.88-1.62,1.2s.69.27,1.48,1.06c.41.42.64,2.1,1,2.1s.62-1.68,1-2.1c.79-.79,1.48-.73,1.48-1.06S47.19,32.42,46.38,31.61Z"/></g></g></svg>