<svg xmlns="http://www.w3.org/2000/svg" viewBox="0 0 45 48.81"><defs><style>.cls-1{fill:#404852;}.cls-2{fill:#f7b519;}</style></defs><g id="Layer_2" data-name="Layer 2"><g id="Layer_2-2" data-name="Layer 2"><path class="cls-1" d="M43.56,17H28.3a7.82,7.82,0,0,0-2.16.15A4,4,0,0,0,23.27,21c-.05,2.06,0,4.13,0,6.19v5.95H10.17A5.6,5.6,0,0,0,8,33.39a4,4,0,0,0-2.5,3.69c0,.68,0,1.37,0,2.05v8.49a.87.87,0,0,0,1.73,0V37.52a2.5,2.5,0,0,1,1-2.34,3.22,3.22,0,0,1,1.83-.34h14A.88.88,0,0,0,25,34V21.49A2.57,2.57,0,0,1,26.05,19a3.64,3.64,0,0,1,2.06-.34H43.56A.87.87,0,0,0,43.56,17Z"/><path class="cls-1" d="M41.74,6.9c-.34-2.09-.69-4.18-1-6.27A.89.89,0,0,0,39.64,0l-5.9,1.49-.85.21a.87.87,0,0,0,.46,1.68l4.38-1.11-5.85,8.92-12.64,0H17.37a.88.88,0,0,0-.87.87q0,6.71-.05,13.42v1.07H.84a.87.87,0,0,0,0,1.73H17.31a.88.88,0,0,0,.87-.87q0-6.7.05-13.42V12.91l11.15,0h2.49a1.31,1.31,0,0,0,1.29-.53c1.12-1.63,2.17-3.3,3.25-4.95L39.35,3l.72,4.37a.87.87,0,1,0,1.67-.46Z"/><path class="cls-2" d="M9.79,48.81V40.25a3.1,3.1,0,0,1,3.09-3.09H27.57v-13A3.09,3.09,0,0,1,30.66,21H45V48.78Z"/></g></g></svg>