<svg fill="none" height="44" viewBox="0 0 40 44" width="40" xmlns="http://www.w3.org/2000/svg"><path d="m22.7145 10.6689h-4.8715c-.7363 0-1.3332.5835-1.3332 1.3031v19.956c0 .7197.5969 1.3031 1.3332 1.3031h4.8715c.7363 0 1.3332-.5834 1.3332-1.3031v-19.956c0-.7196-.5969-1.3031-1.3332-1.3031z" fill="#f7b519"/><path d="m31.8776 17.5757h-23.66928c-.09887 0-.17902.0783-.17902.175v7.4777c0 .0966.08015.175.17902.175h23.66928c.0989 0 .179-.0784.179-.175v-7.4777c0-.0967-.0801-.175-.179-.175z" fill="#f7b519"/><g fill="#404852"><path d="m33.625 35.5285c3.3544-3.2232 4.8997-7.6021 5.6535-12.0685.6362-3.8313.8526-7.718.6455-11.5941-.0377-.7874-.0801-1.5794-.1649-2.36215-.0037-.18207-.0793-.3557-.211-.48447-.1318-.12877-.3094-.20267-.4957-.20621-1.4526-.04308-2.8868-.32965-4.2401-.84723-1.6476-.58252-3.2504-1.27958-4.7961-2.08585-2.7605-1.41095-5.4347-2.97759-8.0091-4.69201-.5418-.359148-1.0836-.7183-1.6112-1.0912662-.1082-.0632891-.232-.0967138-.3581-.0967138s-.2498.0334247-.358.0967138c-1.5076 1.0452262-3.0482 2.0213862-4.5841 2.9745162-2.9343 1.85009-6.04582 3.41687-9.29054 4.6782-1.53545.63736-3.17631.99773-4.843149 1.06364-.185921.00466-.362912.07893-.494422.20746-.131509.12853-.207494.30151-.212264.48322-.2174528 2.15875-.296128 4.32865-.2355617 6.49695.0942247 4.2362.5700597 8.5829 2.0116967 12.6026.68952 2.0422 1.74386 3.9488 3.11413 5.6313 1.93161 2.3023 4.48039 4.2178 6.98681 5.8708 1.8546 1.2391 3.8211 2.3103 5.8749 3.2001.6407.2763 1.5782.8519 2.3132.6539 1.6986-.5494 3.3256-1.2912 4.8479-2.2102 3.0922-1.7032 5.9431-3.7946 8.4802-6.2207.6548-.6262-.3486-1.6024-.9988-.9762-3.4722 3.2969-7.6605 6.2069-12.1833 7.8922-.1649.0645-.3486.1105-.5088.1796-.2638.1197.1649 0 .2026.0276-.3122-.1569-.6429-.276-.9846-.3546-1.7426-.7201-3.4222-1.5779-5.0222-2.5647-2.6047-1.5766-5.00855-3.4499-7.1611-5.5807-1.41595-1.4508-2.52115-3.1634-3.25076-5.0373-1.55942-3.8494-2.10592-8.0579-2.2661-12.1697-.1172-2.4769-.0558-4.9587.18373-7.42714l-.697259.67684c3.297869.0231 6.595729-1.53788 9.455489-2.96068 2.8653-1.44565 5.6389-3.05862 8.3059-4.83014.5512-.36376 1.1071-.73212 1.6489-1.1143h-.7161c1.5359 1.08207 3.1283 2.08585 4.7395 3.05741 3.0419 1.90967 6.271 3.51845 9.6392 4.80251 1.6022.63715 3.3075.9911 5.0363 1.0452l-.7067-.69065c.2143 2.15895.2851 4.32915.212 6.49695-.0942 4.2086-.5747 8.5092-2.0494 12.4875-.8167 2.2825-2.1502 4.3554-3.9009 6.0641-.1248.131-.1927.3041-.1895.4831.0032.1789.0774.3496.2069.4762.1294.1265.3041.199.4872.2022.1831.0031.3603-.0633.4942-.1853z"/><path d="m24.74 16.1805v-5.5255c-.0024-.1824-.0777-.3567-.2097-.4857s-.3103-.20256-.497-.20494h-8.0374c-.1866.00238-.365.07594-.497.20494s-.2072.3033-.2096.4857v7.4594l.7066-.6907h-7.63687c-.18667.0024-.365.0759-.497.2049-.13201.129-.20725.3033-.20969.4858v7.8415c.00244.1824.07768.3567.20969.4857.132.129.31033.2025.497.2049h7.63687l-.7066-.6906v7.4593c.0024.1824.0776.3567.2096.4857s.3104.2026.497.205h8.0516c.1866-.0024.365-.076.497-.205s.2072-.3033.2096-.4857v-7.4593l-.7066.6906h7.6322c.1866-.0024.365-.0759.497-.2049s.2072-.3033.2096-.4857v-7.8554c-.0024-.1824-.0776-.3567-.2096-.4857s-.3104-.2025-.497-.2049h-2.4216c-.1874 0-.3672.0727-.4997.2023-.1326.1295-.207.3052-.207.4883 0 .1832.0744.3589.207.4884.1325.1296.3123.2023.4997.2023h2.4074l-.7067-.6907v7.8554l.7067-.6907h-7.618c-.1867.0024-.365.0759-.4971.2049-.132.129-.2072.3033-.2096.4858v7.4593l.7067-.6907h-8.0516l.7067.6907v-7.4593c-.0024-.1825-.0776-.3568-.2096-.4858-.1321-.129-.3104-.2025-.4971-.2049h-7.63687l.70669.6907v-7.8554l-.70669.6907h7.63687c.1867-.0024.365-.0759.4971-.2049.132-.129.2072-.3033.2096-.4858v-7.4593l-.7067.6907h8.0516l-.7067-.6907v5.5254c0 .1832.0744.3589.207.4884.1325.1296.3122.2023.4997.2023.1874 0 .3671-.0727.4997-.2023.1325-.1295.2069-.3052.2069-.4884z"/><path d="m29.701 17.4097h-5.6535l.7067.6907v-2.1043c0-.1832-.0745-.3589-.207-.4884s-.3123-.2023-.4997-.2023-.3672.0728-.4997.2023-.207.3052-.207.4884v2.1043c.0025.1824.0777.3567.2097.4857s.3103.2026.497.2049h5.6535c.1874 0 .3672-.0727.4997-.2023.1325-.1295.207-.3052.207-.4883 0-.1832-.0745-.3589-.207-.4884s-.3123-.2023-.4997-.2023z"/></g></svg>
